<svg width="46" height="46" viewBox="0 0 46 46" fill="none" xmlns="http://www.w3.org/2000/svg">
<path d="M22.65 0C28.804 0 29.5718 0.0226499 31.9863 0.1359C34.3986 0.24915 36.0407 0.627405 37.4857 1.18913C38.9806 1.76444 40.24 2.54359 41.4993 3.80067C42.6511 4.93293 43.5423 6.30256 44.1109 7.81425C44.6703 9.25705 45.0508 10.9014 45.1641 13.3137C45.2706 15.7282 45.3 16.496 45.3 22.65C45.3 28.804 45.2773 29.5718 45.1641 31.9863C45.0508 34.3986 44.6703 36.0407 44.1109 37.4857C43.5439 38.9983 42.6525 40.3682 41.4993 41.4993C40.3667 42.6507 38.9972 43.5418 37.4857 44.1109C36.0429 44.6703 34.3986 45.0508 31.9863 45.1641C29.5718 45.2706 28.804 45.3 22.65 45.3C16.496 45.3 15.7282 45.2773 13.3137 45.1641C10.9014 45.0508 9.25932 44.6703 7.81425 44.1109C6.30197 43.5434 4.9321 42.6521 3.80067 41.4993C2.64871 40.3672 1.75748 38.9976 1.18913 37.4857C0.627405 36.0429 0.24915 34.3986 0.1359 31.9863C0.0294449 29.5718 0 28.804 0 22.65C0 16.496 0.0226499 15.7282 0.1359 13.3137C0.24915 10.8992 0.627405 9.25932 1.18913 7.81425C1.75591 6.30164 2.64734 4.93163 3.80067 3.80067C4.93242 2.64831 6.3022 1.75703 7.81425 1.18913C9.25932 0.627405 10.8992 0.24915 13.3137 0.1359C15.7282 0.0294449 16.496 0 22.65 0ZM22.65 11.325C19.6464 11.325 16.7659 12.5182 14.642 14.642C12.5182 16.7659 11.325 19.6464 11.325 22.65C11.325 25.6536 12.5182 28.5341 14.642 30.658C16.7659 32.7818 19.6464 33.975 22.65 33.975C25.6536 33.975 28.5341 32.7818 30.658 30.658C32.7818 28.5341 33.975 25.6536 33.975 22.65C33.975 19.6464 32.7818 16.7659 30.658 14.642C28.5341 12.5182 25.6536 11.325 22.65 11.325V11.325ZM37.3725 10.7587C37.3725 10.0079 37.0742 9.28772 36.5432 8.75675C36.0123 8.22579 35.2921 7.9275 34.5412 7.9275C33.7904 7.9275 33.0702 8.22579 32.5392 8.75675C32.0083 9.28772 31.71 10.0079 31.71 10.7587C31.71 11.5096 32.0083 12.2298 32.5392 12.7607C33.0702 13.2917 33.7904 13.59 34.5412 13.59C35.2921 13.59 36.0123 13.2917 36.5432 12.7607C37.0742 12.2298 37.3725 11.5096 37.3725 10.7587ZM22.65 15.855C24.4521 15.855 26.1805 16.5709 27.4548 17.8452C28.7291 19.1195 29.445 20.8479 29.445 22.65C29.445 24.4521 28.7291 26.1805 27.4548 27.4548C26.1805 28.7291 24.4521 29.445 22.65 29.445C20.8479 29.445 19.1195 28.7291 17.8452 27.4548C16.5709 26.1805 15.855 24.4521 15.855 22.65C15.855 20.8479 16.5709 19.1195 17.8452 17.8452C19.1195 16.5709 20.8479 15.855 22.65 15.855V15.855Z" fill="#C8C370"/>
</svg>
