<svg width="46" height="46" viewBox="0 0 46 46" fill="none" xmlns="http://www.w3.org/2000/svg">
<path d="M45.2978 5.37761C43.6012 6.30062 41.802 6.90681 39.9597 7.17611C41.9015 5.74778 43.3548 3.49988 44.0488 0.851282C42.2265 2.18513 40.2286 3.11991 38.1463 3.62557C36.7476 1.78492 34.8936 0.564186 32.8726 0.153159C30.8516 -0.257868 28.7768 0.163836 26.9708 1.35271C25.1648 2.54159 23.7287 4.43102 22.8858 6.72728C22.0429 9.02354 21.8405 11.598 22.31 14.0503C18.6145 13.8225 14.9993 12.6414 11.699 10.5836C8.39873 8.52582 5.48722 5.6374 3.15349 2.10586C2.32743 3.85093 1.89333 5.83468 1.89565 7.85396C1.89565 11.8172 3.53573 15.3186 6.02918 17.3685C4.55358 17.3114 3.11045 16.8213 1.82009 15.939V16.0812C1.82053 18.7207 2.56317 21.2788 3.92208 23.3218C5.28098 25.3648 7.17253 26.7669 9.27601 27.2904C7.9062 27.7469 6.46989 27.8142 5.0758 27.4872C5.66887 29.7592 6.82479 31.7462 8.38173 33.17C9.93866 34.5938 11.8186 35.3831 13.7585 35.4274C11.8305 37.2896 9.62309 38.6663 7.26231 39.4786C4.90154 40.2909 2.43374 40.5229 0 40.1614C4.24843 43.5218 9.194 45.3058 14.2451 45.3C31.3415 45.3 40.6909 27.8808 40.6909 12.7739C40.6909 12.2819 40.6798 11.7844 40.662 11.2979C42.4818 9.68026 44.0524 7.67635 45.3 5.38034L45.2978 5.37761Z" fill="#C8C370"/>
</svg>
