<svg width="46" height="46" viewBox="0 0 46 46" fill="none" xmlns="http://www.w3.org/2000/svg">
<path d="M22.65 0C10.1415 0 0 10.1415 0 22.65C0 26.8992 1.19354 30.8608 3.22939 34.2589L0.202759 45.3L11.4798 42.3397C14.7779 44.2148 18.5852 45.3 22.65 45.3C35.1585 45.3 45.3 35.1585 45.3 22.65C45.3 10.1415 35.1585 0 22.65 0ZM14.8972 12.0844C15.2653 12.0844 15.6435 12.0822 15.97 12.0992C16.3739 12.1086 16.8136 12.1382 17.2345 13.0687C17.7347 14.1748 18.8238 16.9496 18.9635 17.2308C19.1032 17.512 19.2021 17.8434 19.0077 18.2114C18.8227 18.5889 18.7265 18.8174 18.4547 19.1515C18.1735 19.4761 17.8653 19.8794 17.6105 20.1247C17.3293 20.406 17.0389 20.7143 17.3635 21.2749C17.6882 21.8355 18.8157 23.6733 20.4823 25.1568C22.6246 27.0708 24.4322 27.6589 24.9946 27.9402C25.5571 28.2214 25.8828 28.1776 26.2075 27.8001C26.5416 27.432 27.6106 26.1691 27.9881 25.6066C28.3561 25.0441 28.7319 25.1414 29.2415 25.3264C29.7587 25.5114 32.5167 26.87 33.0792 27.1512C33.6416 27.4325 34.0104 27.5717 34.152 27.8001C34.2973 28.036 34.2974 29.1592 33.8312 30.4691C33.365 31.7772 31.0757 33.0421 30.0489 33.1308C29.0126 33.227 28.0455 33.5966 23.3136 31.7336C17.6058 29.4856 14.0062 23.6395 13.7249 23.262C13.4437 22.8939 11.4393 20.2225 11.4393 17.4667C11.4393 14.7016 12.8891 13.3473 13.3968 12.7849C13.914 12.2224 14.5197 12.0844 14.8972 12.0844Z" fill="#CAC473"/>
</svg>
