<svg width="93" height="93" viewBox="0 0 93 93" fill="none" xmlns="http://www.w3.org/2000/svg">
<circle cx="45" cy="45" r="45" fill="#142F38"/>
<circle cx="79" cy="79" r="14" fill="#142F38"/>
<path d="M79.1222 81.6993L79.5 82.135L79.8778 81.6993L84.1661 76.7531C84.3238 76.5789 84.5181 76.4982 84.7031 76.5C84.8892 76.5019 85.0843 76.5876 85.2405 76.7678C85.3986 76.9501 85.4978 77.2099 85.5 77.4938C85.5021 77.7763 85.4078 78.0374 85.2533 78.2234L80.0436 84.2323C80.0436 84.2323 80.0436 84.2323 80.0436 84.2324C79.8856 84.4145 79.6881 84.5 79.5 84.5C79.3119 84.5 79.1144 84.4145 78.9564 84.2324C78.9564 84.2323 78.9564 84.2323 78.9564 84.2323L73.7467 78.2234C73.5922 78.0374 73.4979 77.7763 73.5 77.4938C73.5022 77.2099 73.6014 76.9501 73.7595 76.7678C73.9157 76.5876 74.1108 76.5019 74.2969 76.5C74.4819 76.4982 74.6762 76.5789 74.8339 76.7531L79.1222 81.6993Z" fill="#AA9F00" stroke="#AA9F00"/>
</svg>
